<svg width="250" height="250" viewBox="0 0 250 250" fill="none" xmlns="http://www.w3.org/2000/svg">
<g clip-path="url(#clip0_832_473)">
<path d="M73.9437 75.5517C76.3509 67.5093 83.7509 62 92.1458 62H158.675C180.457 62 185.11 92.69 164.307 99.1462L117.739 113.598C112.795 115.133 108.691 118.618 106.376 123.247L88.0922 159.816C77.7017 180.597 46.2337 168.128 52.8959 145.87L73.9437 75.5517Z" fill="#E5E5E5"/>
<path d="M161.69 165.049C160.974 176.266 150.728 184.413 139.638 182.584L113.145 178.215C95.4569 175.299 91.278 151.758 106.881 142.931L124.543 132.94C127.741 131.131 130.255 128.319 131.694 124.938C139.063 107.636 164.966 113.789 163.766 132.557L161.69 165.049Z" fill="#E5E5E5"/>
</g>
<defs>
<clipPath id="clip0_832_473">
<rect width="250" height="250" fill="white"/>
</clipPath>
</defs>
</svg>
